<?xml version="1.0" standalone="no"?>
<!DOCTYPE svg PUBLIC "-//W3C//DTD SVG 20010904//EN"
 "http://www.w3.org/TR/2001/REC-SVG-20010904/DTD/svg10.dtd">
<svg version="1.0" xmlns="http://www.w3.org/2000/svg"
 width="32.000000pt" height="32.000000pt" viewBox="0 0 32.000000 32.000000"
 preserveAspectRatio="xMidYMid meet">

<g transform="translate(0.000000,32.000000) scale(0.100000,-0.100000)"
fill="#000000" stroke="none">
<path d="M130 220 c-11 -11 -20 -26 -20 -33 0 -7 -11 -13 -26 -12 -31 0 -55
-28 -37 -46 6 -6 28 -12 49 -13 22 -2 47 -7 57 -11 10 -4 35 -3 55 3 20 6 46
13 56 14 10 2 24 11 30 21 14 22 -3 52 -31 52 -10 1 -29 11 -41 23 -27 27 -66
28 -92 2z m90 -12 c11 -12 31 -23 43 -23 30 0 32 -48 2 -53 -11 -1 -37 -8 -57
-14 -20 -6 -45 -7 -55 -3 -10 4 -35 9 -56 11 -45 3 -52 7 -43 30 4 11 14 15
32 11 20 -4 27 1 35 22 18 47 64 56 99 19z"/>
</g>
</svg>
